<?xml version="1.0" encoding="utf-8"?>
<!-- Generator: Adobe Illustrator 13.0.0, SVG Export Plug-In . SVG Version: 6.00 Build 14948)  -->
<!DOCTYPE svg PUBLIC "-//W3C//DTD SVG 1.1//EN" "http://www.w3.org/Graphics/SVG/1.1/DTD/svg11.dtd">
<svg version="1.1" id="Layer_1" xmlns="http://www.w3.org/2000/svg" xmlns:xlink="http://www.w3.org/1999/xlink" x="0px" y="0px"
	 width="322px" height="468.702px" viewBox="0 0 322 468.702" enable-background="new 0 0 322 468.702" xml:space="preserve">
<polygon fill="#A1582F" points="85.684,438.976 87.897,445.31 91.656,445.479 91.656,445.646 90.064,468.064 99.195,468.064 
	105.951,446.072 110.469,446.257 112.937,438.661 "/>
<polygon fill="#A1582F" points="249.291,437.118 252.081,445.887 256.602,445.699 263.354,468.064 272.486,468.064 270.895,445.273 
	270.872,445.088 274.629,444.921 277.42,436.804 "/>
<polygon fill="#A1582F" points="221.047,157.596 253.533,158.376 235.204,381.546 208.458,381.358 214.085,395.605 183.834,395.699 
	183.834,134.973 228.447,134.75 "/>
<polygon fill="#A1582F" points="156.674,380.71 124.741,380.486 116.464,153.176 149.596,153.956 142.563,135.177 180.376,134.992 
	180.376,395.698 150.771,395.792 "/>
<polygon fill="#A1582F" points="180.376,114.987 180.376,127.562 130.183,127.821 137.077,146.229 106.964,145.504 115.796,387.841 
	144.132,388.047 138.159,403.258 180.376,403.129 180.376,411.096 100.832,409.945 81.856,113.966 "/>
<polygon fill="#A1582F" points="262.895,412.268 183.834,411.133 183.834,403.128 226.696,402.998 221.116,388.882 243.852,389.031 
	263.355,151.169 232.898,150.445 240.393,127.264 183.834,127.543 183.834,115.024 281.753,116.064 "/>
<path fill="#A1582F" d="M86.744,424.433H277.49l25.107-323.915v-0.019l-240.961-0.26L86.744,424.433z M97.535,412.694
	L78.214,111.142l207.16,2.173l-19.183,301.794L97.535,412.694z"/>
<g>
	<defs>
		<rect id="SVGID_1_" width="322" height="468.702"/>
	</defs>
	<clipPath id="SVGID_2_">
		<use xlink:href="#SVGID_1_"  overflow="visible"/>
	</clipPath>
	<path clip-path="url(#SVGID_2_)" fill="#A1582F" d="M89.143,46.448h67.647l-5.073-22.066h59.302l-9.2,22.066l72.628,1.43v0.019
		c-6.617,18.89-7.816,32.449,7.17,40.64l-193.719-2.47C98.549,77.764,96.267,65.078,89.143,46.448"/>
	<polygon clip-path="url(#SVGID_2_)" fill="#B5663D" points="178.387,409.58 177.603,116.265 84.003,115.024 84.003,121.086 
		173.286,120.296 174.854,409.58 	"/>
	<polygon clip-path="url(#SVGID_2_)" fill="#FFCC63" points="183.834,395.699 183.834,403.129 226.696,402.999 221.116,388.883 
		243.852,389.031 263.355,151.17 232.898,150.445 240.393,127.264 183.834,127.543 183.834,134.973 228.448,134.75 221.048,157.596 
		253.533,158.376 235.203,381.546 208.458,381.358 214.084,395.605 	"/>
	<polygon clip-path="url(#SVGID_2_)" fill="#FFCC63" points="106.964,145.504 115.795,387.841 144.132,388.046 138.16,403.258 
		180.377,403.129 180.377,395.699 150.771,395.792 156.674,380.71 124.742,380.487 116.464,153.175 149.596,153.956 
		142.564,135.177 180.377,134.991 180.377,127.562 130.183,127.821 137.076,146.229 	"/>
	<polygon clip-path="url(#SVGID_2_)" fill="#E19926" points="39.041,439.07 66.087,439.07 77.615,439.07 75.17,424.433 
		41.024,424.433 26.314,424.433 31.617,439.07 	"/>
	<polygon clip-path="url(#SVGID_2_)" fill="#E19926" points="116.326,2.464 133.572,38.183 140.234,38.369 124.603,0.83 	"/>
	<polygon clip-path="url(#SVGID_2_)" fill="#E19926" points="61.636,37.439 69.015,46.317 73.58,46.448 69.452,36.344 	"/>
	<polygon clip-path="url(#SVGID_2_)" fill="#E19926" points="3.35,85.509 7.478,100.238 18.659,100.238 45.219,100.221 
		43.607,85.509 	"/>
	<path clip-path="url(#SVGID_2_)" fill="#5E3624" d="M78.191,85.955l9.706,0.112c10.653-8.303,8.37-20.989,1.246-39.619H78.398
		C85.5,65.003,88.566,77.671,78.191,85.955"/>
	<polygon clip-path="url(#SVGID_2_)" fill="#FFCC63" points="204.332,437.64 232.114,437.324 249.291,437.118 277.42,436.804 
		283.853,436.729 285.927,424.434 277.488,424.434 86.744,424.434 75.17,424.434 77.616,439.07 85.684,438.977 112.937,438.66 	"/>
	<polygon clip-path="url(#SVGID_2_)" fill="#FFCC63" points="69.452,36.344 73.58,46.448 78.398,46.448 89.143,46.448 
		156.789,46.448 151.718,24.382 211.019,24.382 201.818,46.448 274.446,47.878 285.467,48.101 289.156,38.182 221.578,38.368 
		240.899,6.272 124.604,0.83 140.235,38.368 133.572,38.182 	"/>
	<polygon clip-path="url(#SVGID_2_)" fill="#FFCC63" points="281.616,88.537 87.896,86.067 78.191,85.955 43.607,85.509 
		45.22,100.22 61.637,100.239 302.596,100.499 317.423,100.517 319.036,89.021 	"/>
	<polygon clip-path="url(#SVGID_2_)" fill="#5E3624" points="44.966,445.646 43.353,468.064 52.483,468.064 59.239,446.072 
		44.966,445.478 	"/>
	<polygon clip-path="url(#SVGID_2_)" fill="#5E3624" points="39.041,439.07 41.208,445.31 44.966,445.477 59.238,446.072 
		63.758,446.257 66.087,439.07 	"/>
	<polygon clip-path="url(#SVGID_2_)" fill="#5E3624" points="211.456,445.701 218.233,468.063 227.341,468.063 225.752,445.272 
		225.728,445.088 	"/>
	<polygon clip-path="url(#SVGID_2_)" fill="#5E3624" points="211.456,445.701 225.728,445.088 229.508,444.921 232.114,437.324 
		204.33,437.639 206.937,445.887 	"/>
	<polygon clip-path="url(#SVGID_2_)" fill="#5E3624" points="18.66,100.239 41.024,424.433 75.17,424.433 86.745,424.433 
		61.637,100.239 45.22,100.22 	"/>
	<path clip-path="url(#SVGID_2_)" fill="#8B4A24" d="M107.617,56.883l62.452,3.694l-2.829-26.139l30.81-0.574l-5.405,26.625
		l58.977-1.555l2.871,22.064h-148.44L107.617,56.883z M250.068,60.369l-59.468,1.567l5.404-26.641l-26.881,0.501l2.846,26.291
		l-62.718-3.711l-1.376,21.229h144.699L250.068,60.369z"/>
	<polygon clip-path="url(#SVGID_2_)" fill="#5E3624" points="273.779,49.842 197.813,48.101 201.817,46.448 274.446,47.878 	"/>
	<polygon clip-path="url(#SVGID_2_)" fill="#5E3624" points="211.019,24.382 201.818,46.448 197.813,48.101 204.415,24.382 	"/>
	<polygon clip-path="url(#SVGID_2_)" fill="#5E3624" points="205.465,27.82 152.508,27.82 151.717,24.382 207.231,24.466 	"/>
	<polygon clip-path="url(#SVGID_2_)" fill="#5E3624" points="156.79,46.448 153.663,48.145 89.105,49.842 86.744,46.448 	"/>
	<polygon clip-path="url(#SVGID_2_)" fill="#5E3624" points="61.636,100.239 302.598,100.499 302.291,104.478 58.396,107.571 	"/>
	<polygon clip-path="url(#SVGID_2_)" fill="#5E3624" points="277.42,436.804 276.642,439.07 258.445,440.484 257.66,445.541 
		270.872,445.087 271.03,447.204 263.354,448.703 266.195,468.064 263.354,468.064 256.602,445.699 252.081,445.887 249.29,437.118 
			"/>
	<polygon clip-path="url(#SVGID_2_)" fill="#5E3624" points="112.937,438.661 111.865,441.96 92.686,442.664 93.054,445.477 
		105.95,446.071 105.131,448.74 96.219,448.74 93.643,468.063 90.064,468.063 91.656,445.477 87.897,445.31 85.684,438.976 	"/>
	<polygon clip-path="url(#SVGID_2_)" fill="#B5663D" points="260.898,411.097 279.736,117.055 184.757,116.264 184.757,120.059 
		276.204,120.296 259.353,411.097 	"/>
	<path clip-path="url(#SVGID_2_)" fill="#8B4A24" d="M78.214,111.142l19.321,301.553l168.657,2.415l19.184-301.794L78.214,111.142z
		 M183.834,403.129v-7.431V134.973v-7.429v-12.519l97.921,1.04l-18.86,296.203l-79.061-1.134V403.129z M81.857,113.965l98.52,1.021
		v12.575v7.43v260.707v7.431v7.968l-79.544-1.152L81.857,113.965z"/>
	<path clip-path="url(#SVGID_2_)" fill="#5E3624" d="M191.121,301.267c0,6.575,6.593,11.889,14.732,11.889
		c3.273,0,6.295-0.855,8.737-2.321h0.024c3.643-2.156,5.994-5.628,5.994-9.567c0-5.461-4.588-10.049-10.813-11.44l1.013-6.224
		h-8.784h-1.129l1.037,6.224c-4.98,1.096-8.898,4.254-10.283,8.265C191.306,299.113,191.121,300.172,191.121,301.267
		 M209.312,292.779c4.059,1.15,6.963,4.254,6.963,7.931c0,1.84-0.737,3.548-2.006,4.923c-1.867,2.098-4.957,3.473-8.415,3.473
		c-5.741,0-10.422-3.77-10.422-8.396c0-3.677,2.928-6.798,6.986-7.931l0.738,4.514h5.418l0.229-1.393L209.312,292.779z"/>
	<path clip-path="url(#SVGID_2_)" fill="#E19926" d="M212.32,292.779c4.059,1.15,6.963,4.254,6.963,7.932
		c0,1.839-0.737,3.547-2.005,4.922l0.021,0.019c5.557-3.231,2.606-13.021-4.748-14.246L212.32,292.779z"/>
	<path clip-path="url(#SVGID_2_)" fill="#E19926" d="M194.129,301.268c0,6.574,6.594,11.888,14.732,11.888
		c3.274,0,6.296-0.855,8.739-2.322c-12.404,2.581-20.06-1.652-22.942-12.742C194.314,299.113,194.129,300.171,194.129,301.268"/>
	<polygon clip-path="url(#SVGID_2_)" fill="#E19926" points="204.942,289.826 205.427,292.779 206.163,297.293 211.583,297.293 
		211.813,295.899 207.456,295.899 205.035,283.603 203.905,283.603 	"/>
	<path clip-path="url(#SVGID_2_)" fill="#FFCC63" d="M217.278,305.633c-1.868,2.099-4.958,3.474-8.417,3.474
		c-5.74,0-10.42-3.771-10.42-8.396c0-3.679,2.928-6.8,6.986-7.933l-0.486-2.953c-4.979,1.097-8.898,4.254-10.283,8.267
		c2.883,11.089,10.538,15.322,22.942,12.741h0.021c3.645-2.154,5.996-5.628,5.996-9.565c0-5.461-4.587-10.049-10.814-11.442
		l-0.253,1.579c7.355,1.227,10.308,11.016,4.75,14.247L217.278,305.633z"/>
	<polygon clip-path="url(#SVGID_2_)" fill="#FFCC63" points="205.035,283.604 207.457,295.9 211.813,295.9 212.321,292.779 
		212.551,291.405 212.805,289.826 213.819,283.604 	"/>
	<path clip-path="url(#SVGID_2_)" fill="#5E3624" d="M144.125,301.267c0,6.575,6.594,11.889,14.733,11.889
		c3.273,0,6.295-0.855,8.738-2.321h0.022c3.644-2.156,5.995-5.628,5.995-9.567c0-5.461-4.59-10.049-10.814-11.44l1.017-6.224h-8.786
		h-1.129l1.036,6.224c-4.979,1.096-8.898,4.254-10.283,8.265C144.31,299.113,144.125,300.172,144.125,301.267 M162.315,292.779
		c4.059,1.15,6.963,4.254,6.963,7.931c0,1.84-0.737,3.548-2.004,4.923c-1.869,2.098-4.959,3.473-8.416,3.473
		c-5.741,0-10.423-3.77-10.423-8.396c0-3.677,2.929-6.798,6.986-7.931l0.738,4.514h5.419l0.229-1.393L162.315,292.779z"/>
	<path clip-path="url(#SVGID_2_)" fill="#E19926" d="M165.325,292.779c4.058,1.15,6.962,4.254,6.962,7.932
		c0,1.839-0.737,3.547-2.004,4.922l0.021,0.019c5.556-3.231,2.605-13.021-4.749-14.246L165.325,292.779z"/>
	<path clip-path="url(#SVGID_2_)" fill="#E19926" d="M147.134,301.268c0,6.574,6.594,11.888,14.733,11.888
		c3.272,0,6.293-0.855,8.737-2.322c-12.403,2.581-20.059-1.652-22.94-12.742C147.317,299.113,147.134,300.171,147.134,301.268"/>
	<polygon clip-path="url(#SVGID_2_)" fill="#E19926" points="157.946,289.826 158.431,292.779 159.168,297.293 164.588,297.293 
		164.817,295.899 160.461,295.899 158.04,283.603 156.91,283.603 	"/>
	<path clip-path="url(#SVGID_2_)" fill="#FFCC63" d="M170.282,305.633c-1.867,2.099-4.958,3.474-8.416,3.474
		c-5.741,0-10.421-3.771-10.421-8.396c0-3.679,2.928-6.8,6.986-7.933l-0.484-2.953c-4.98,1.097-8.9,4.254-10.283,8.267
		c2.883,11.089,10.536,15.322,22.94,12.741h0.022c3.644-2.154,5.996-5.628,5.996-9.565c0-5.461-4.588-10.049-10.814-11.442
		l-0.253,1.579c7.354,1.227,10.306,11.016,4.751,14.247L170.282,305.633z"/>
	<polygon clip-path="url(#SVGID_2_)" fill="#FFCC63" points="158.039,283.604 160.46,295.9 164.817,295.9 165.325,292.779 
		165.556,291.405 165.809,289.826 166.824,283.604 	"/>
</g>
</svg>
