<?xml version="1.0" encoding="utf-8"?>
<!-- Svg Vector Icons : http://www.onlinewebfonts.com/icon -->
<!DOCTYPE svg PUBLIC "-//W3C//DTD SVG 1.1//EN" "http://www.w3.org/Graphics/SVG/1.1/DTD/svg11.dtd">
<svg version="1.1" xmlns="http://www.w3.org/2000/svg" xmlns:xlink="http://www.w3.org/1999/xlink" x="0px" y="0px" viewBox="0 0 1000 1000" enable-background="new 0 0 1000 1000" xml:space="preserve">
<metadata> Svg Vector Icons : http://www.onlinewebfonts.com/icon </metadata>
<g><path d="M498.4,411.5L255,647h147v294h196V647h147L498.4,411.5z M892,59H108c-53.9,0-98,44.1-98,98v588c0,53.9,44.1,98,98,98h196v-98H108V304h784v441H696v98h196c53.9,0,98-44.1,98-98V157C990,103.1,945.9,59,892,59z M132.5,218.3c-20.3,0-36.8-16.5-36.8-36.8s16.5-36.8,36.8-36.8s36.8,16.5,36.8,36.8S152.8,218.3,132.5,218.3z M230.5,218.3c-20.3,0-36.8-16.5-36.8-36.8s16.5-36.8,36.8-36.8s36.8,16.5,36.8,36.8S250.8,218.3,230.5,218.3z M892,206H304v-49h588.9L892,206z"/></g>
</svg>