<?xml version="1.0" encoding="utf-8"?>
<!-- Generator: Adobe Illustrator 13.0.0, SVG Export Plug-In . SVG Version: 6.00 Build 14948)  -->
<!DOCTYPE svg PUBLIC "-//W3C//DTD SVG 1.1//EN" "http://www.w3.org/Graphics/SVG/1.1/DTD/svg11.dtd">
<svg version="1.1" id="Layer_1" xmlns="http://www.w3.org/2000/svg" xmlns:xlink="http://www.w3.org/1999/xlink" x="0px" y="0px"
	 width="24px" height="24px" viewBox="0 0 24 24" enable-background="new 0 0 24 24" xml:space="preserve">
<path fill="none" d="M0,0h24v24H0V0z"/>
<path d="M5.208,13.209h11.17l-4.88,4.88c-0.39,0.39-0.39,1.03,0,1.42c0.39,0.39,1.02,0.39,1.411,0l6.59-6.59
	c0.39-0.391,0.39-1.02,0-1.41l-6.58-6.6c-0.391-0.391-1.021-0.391-1.411,0c-0.39,0.389-0.39,1.02,0,1.409l4.871,4.89H5.208
	c-0.55,0-1,0.451-1,1C4.208,12.759,4.659,13.209,5.208,13.209z"/>
</svg>
